<svg width="44" height="44" viewBox="0 0 44 44" fill="none" xmlns="http://www.w3.org/2000/svg">
<rect width="44" height="44" fill="#735CE6"/>
<path d="M16.5 17C15.9477 17 15.5 17.4477 15.5 18C15.5 18.5523 15.9477 19 16.5 19H27.5C28.0523 19 28.5 18.5523 28.5 18C28.5 17.4477 28.0523 17 27.5 17H16.5Z" fill="white"/>
<path d="M15.5 23C15.5 22.4477 15.9477 22 16.5 22H27.5C28.0523 22 28.5 22.4477 28.5 23C28.5 23.5523 28.0523 24 27.5 24H16.5C15.9477 24 15.5 23.5523 15.5 23Z" fill="white"/>
<path fill-rule="evenodd" clip-rule="evenodd" d="M23.9945 11H20.0055C18.6195 11 17.5172 11 16.6284 11.0738C15.7181 11.1494 14.9425 11.3075 14.2342 11.6755C13.1383 12.2448 12.2448 13.1383 11.6755 14.2342C11.3075 14.9425 11.1494 15.7181 11.0738 16.6284C11 17.5172 11 18.6195 11 20.0055V23.9945C11 25.3805 11 26.4828 11.0738 27.3716C11.1494 28.2819 11.3075 29.0575 11.6755 29.7658C12.2448 30.8617 13.1383 31.7552 14.2342 32.3245C14.9425 32.6925 15.7181 32.8506 16.6284 32.9262C17.5172 33 18.6195 33 20.0054 33H23.9945C25.3805 33 26.4828 33 27.3716 32.9262C28.2819 32.8506 29.0575 32.6925 29.7658 32.3245C30.8617 31.7552 31.7552 30.8617 32.3245 29.7658C32.6925 29.0575 32.8506 28.2819 32.9262 27.3716C33 26.4828 33 25.3805 33 23.9946V20.0055C33 18.6195 33 17.5172 32.9262 16.6284C32.8506 15.7181 32.6925 14.9425 32.3245 14.2342C31.7552 13.1383 30.8617 12.2448 29.7658 11.6755C29.0575 11.3075 28.2819 11.1494 27.3716 11.0738C26.4828 11 25.3805 11 23.9945 11ZM15.1561 13.4503C15.5314 13.2554 16.0095 13.1321 16.7939 13.0669C17.5903 13.0008 18.6095 13 20.05 13H23.95C25.3905 13 26.4097 13.0008 27.2061 13.0669C27.9905 13.1321 28.4686 13.2554 28.8439 13.4503C29.5745 13.8298 30.1702 14.4255 30.5497 15.1561C30.7446 15.5314 30.8679 16.0095 30.9331 16.7939C30.9992 17.5903 31 18.6095 31 20.05V23.95C31 25.3905 30.9992 26.4097 30.9331 27.2061C30.8679 27.9905 30.7446 28.4686 30.5497 28.8439C30.1702 29.5745 29.5745 30.1702 28.8439 30.5497C28.4686 30.7446 27.9905 30.8679 27.2061 30.9331C26.8535 30.9623 26.4572 30.9788 26 30.9881V28C26 27.4477 25.5523 27 25 27C24.4477 27 24 27.4477 24 28V31C23.9834 31 23.9667 31 23.95 31H20.05C20.0333 31 20.0166 31 20 31V28C20 27.4477 19.5523 27 19 27C18.4477 27 18 27.4477 18 28V30.9881C17.5428 30.9788 17.1465 30.9623 16.7939 30.9331C16.0095 30.8679 15.5314 30.7446 15.1561 30.5497C14.4255 30.1702 13.8298 29.5745 13.4503 28.8439C13.2554 28.4686 13.1321 27.9905 13.0669 27.2061C13.0008 26.4097 13 25.3905 13 23.95V20.05C13 18.6095 13.0008 17.5903 13.0669 16.7939C13.1321 16.0095 13.2554 15.5314 13.4503 15.1561C13.8298 14.4255 14.4255 13.8298 15.1561 13.4503Z" fill="white"/>
</svg>
